<svg width="2741" height="314" viewBox="0 0 2741 314" fill="none" xmlns="http://www.w3.org/2000/svg">
<path d="M432.667 1.73334C432.267 2.66666 431.867 68.1333 431.6 147.333L431.333 291.067L420.8 268.667C407.2 239.6 340 101.6 312 45.0667L290.4 1.46664H225.6H160.667L156.667 9.86667C150.133 23.3333 98.1333 125.333 67.4667 184.667C17.8667 280.133 7.06667 300.933 3.46667 306.533C1.6 309.6 0 312.4 0 312.8C0 313.2 27.2 313.467 60.5333 313.467H121.067L132.8 285.467L144.667 257.467H224.8H304.933L313.867 279.733C318.933 292.133 324.133 304.667 325.467 307.733L327.867 313.467H431.2H534.667V258.8V204.133H551.867H568.933L589.333 233.733C600.4 250.133 617.2 274.667 626.4 288.4L643.2 313.467H754.933H866.667L866.933 251.333L867.333 189.067L908.133 231.6C930.533 255.067 952.667 278.267 957.333 283.467C962 288.533 970.267 297.467 975.6 303.2L985.333 313.467L1054 313.2L1122.53 312.8L1093.6 280.667C1055.73 238.667 1026 206.4 997.6 176.533L974.533 152.4L990.933 134.533C1010.53 113.333 1052.13 68.6667 1088 30.4C1102.27 15.0667 1114.27 2 1114.4 1.33331C1114.67 0.666656 1090.8 0.133331 1054.67 0.133331H994.267L966.933 26.4C951.867 40.9333 923.2 68.5333 903.467 87.7333L867.333 122.8L866.667 61.7333L866 0.799988H815.333H764.667L764 153.733L763.333 306.533L748.267 283.067C740 270 724.133 246.533 713.2 230.8C702.267 215.067 693.333 201.733 693.333 201.333C693.333 200.933 697.333 198.933 702.4 197.067C724.4 188.267 740.267 170.133 749.2 143.467C753.333 131.067 755.333 104.267 753.467 87.6C747.2 32.2667 720 6.13333 664 1.46664C655.6 0.799988 600.133 0.133331 540.933 0.133331C456 0.133331 433.067 0.533325 432.667 1.73334ZM646.533 85.4667C656.4 88.2667 661.867 96.8 661.867 109.6C661.867 119.733 659.067 125.733 652 130.4C647.6 133.467 647.467 133.467 591.2 133.467H534.667V108.8V84.1333H588.4C619.2 84.1333 644 84.6667 646.533 85.4667ZM247.867 135.867C260.667 162 272 185.067 272.933 187.067L274.8 190.8H224.133H173.467L193.867 149.067C205.067 126.267 216.133 103.067 218.667 97.7333C221.067 92.5333 223.467 88.1333 223.867 88.1333C224.267 88.1333 235.2 109.6 247.867 135.867Z" fill="#F4F3EF"></path>
<path d="M1172.14 1.03131C1149.64 3.72516 1128.43 18.6055 1119.04 38.3604L1114.28 48.2379V84.1559C1114.28 114.558 1114.67 121.228 1116.47 127.129C1120.97 141.496 1133.06 152.015 1150.03 156.12L1158.77 158.301L1149.64 160.61C1132.03 165.1 1119.81 174.721 1115.57 187.549C1112.48 196.656 1113.38 259.128 1116.6 269.134C1121.1 282.475 1135.76 297.74 1152.09 305.95C1166.23 313.133 1164.94 313.133 1304.19 313.133L1432.25 313.005L1433.15 299.921C1433.67 292.737 1433.8 276.959 1433.54 265.029L1433.15 243.221L1318.72 242.58L1204.29 241.939L1203.9 217.951L1203.64 193.834L1304.83 193.578L1406.15 193.193L1406.54 158.814L1406.79 124.564H1305.22H1203.64V102.115V79.6662H1311.01H1418.37V39.8997V0.133362L1297.25 0.261658C1230.52 0.389923 1174.33 0.77475 1172.14 1.03131Z" fill="#F4F3EF"></path>
<path d="M2479.14 1.03131C2456.64 3.72516 2435.43 18.6055 2426.04 38.3604L2421.28 48.2379V84.1559C2421.28 114.558 2421.67 121.228 2423.47 127.129C2427.97 141.496 2440.06 152.015 2457.03 156.12L2465.77 158.301L2456.64 160.61C2439.03 165.1 2426.81 174.721 2422.57 187.549C2419.48 196.656 2420.38 259.128 2423.6 269.134C2428.1 282.475 2442.76 297.74 2459.09 305.95C2473.23 313.133 2471.94 313.133 2611.19 313.133L2739.25 313.005L2740.15 299.921C2740.67 292.737 2740.8 276.959 2740.54 265.029L2740.15 243.221L2625.72 242.58L2511.29 241.939L2510.9 217.951L2510.64 193.834L2611.83 193.578L2713.15 193.193L2713.54 158.814L2713.79 124.564H2612.22H2510.64V102.115V79.6662H2618.01H2725.37V39.8997V0.133362L2604.25 0.261658C2537.52 0.389923 2481.33 0.77475 2479.14 1.03131Z" fill="#F4F3EF"></path>
<path d="M1441.47 1.06665C1441.07 1.46664 1440.67 20.4 1440.67 43.0667V84.1333H1494H1547.33V198.8V313.467H1599.33H1651.33V198.8V84.1333H1704H1756.53L1756.93 65.2L1757.33 46.1333L1762.53 53.4667C1773.87 69.0667 1809.33 117.333 1838.93 157.333L1870 199.2V256.4V313.467H1922H1974V256.8V200.133L1980.53 191.733C2004.8 160.667 2070 68.5333 2092.13 34L2106.67 11.2L2107.07 162.267L2107.33 313.467H2156.67H2206V267.467V221.467H2268.67C2339.6 221.467 2344.27 220.933 2362.67 212.133C2384.27 201.733 2397.2 183.467 2404.93 152.533C2407.47 142.133 2407.87 137.2 2407.87 110.133C2407.87 82.6667 2407.6 78.2667 2404.93 67.4667C2396 31.8667 2375.6 11.7333 2340.53 3.86667C2328.27 1.06665 2325.33 0.933319 2165.87 0.533325L2003.73 0L1964.53 52.6667C1942.93 81.6 1924.93 105.333 1924.4 105.333C1923.87 105.467 1917.07 96.4 1909.07 85.3333C1901.2 74.2667 1884.13 50.8 1871.2 33.0667L1847.87 0.799988L1645.07 0.533325C1533.6 0.399994 1442 0.533325 1441.47 1.06665ZM2309.6 88.4C2317.33 93.4667 2320.67 101.067 2320.67 113.6C2320.53 129.467 2313.73 140.133 2302.4 142.267C2296.8 143.333 2273.47 143.6 2233.73 143.067L2206 142.8V114.4C2206 98.6667 2206.4 85.4667 2206.93 84.9333C2207.47 84.4 2229.6 84.1333 2256 84.4L2304.27 84.8L2309.6 88.4Z" fill="#F4F3EF"></path>
</svg>